PathFileType	4	(X/Y/Z)
DataRate	CameraRate	NumFrames	NumMarkers	Units	OrigDataRate	OrigDataStartFrame	OrigNumFrames	
	120.0	120.0	7	39	mm	120.0	52	206
Frame#	Time	midhip	hip_r	hip_l	knee_r	knee_l	ankle_r	ankle_l	midasis	asis_r	asis_l	psis_r	psis_l	epicondLat_r	epicondLat_l	epicondMed_r	epicondMed_l	malleolusLat_r	malleolusLat_l	malleolusMedv_r	malleolusMedv_l	heel_r	heel_l	sternalnotch	xyphoidprocess	neck	subclavicle_r	subclavicle_l	toe_r	toe_l	thighwand_r	thighwand_l	upperleg1_r	upperleg1_l	upperleg2_r	upperleg2_l	shankwand_r	shankwand_l	lowerleg1_r	lowerleg1_l
	X1	Y1	Z1	X2	Y2	Z2	X3	Y3	Z3	X4	Y4	Z4	X5	Y5	Z5	X6	Y6	Z6	X7	Y7	Z7	X8	Y8	Z8	X9	Y9	Z9	X10	Y10	Z10	X11	Y11	Z11	X12	Y12	Z12	X13	Y13	Z13	X14	Y14	Z14	X15	Y15	Z15	X16	Y16	Z16	X17	Y17	Z17	X18	Y18	Z18	X19	Y19	Z19	X20	Y20	Z20	X21	Y21	Z21	X22	Y22	Z22	X23	Y23	Z23	X24	Y24	Z24	X25	Y25	Z25	X26	Y26	Z26	X27	Y27	Z27	X28	Y28	Z28	X29	Y29	Z29	X30	Y30	Z30	X31	Y31	Z31	X32	Y32	Z32	X33	Y33	Z33	X34	Y34	Z34	X35	Y35	Z35	X36	Y36	Z36	X37	Y37	Z37	X38	Y38	Z38	X39	Y39	Z39

	52	0.43333	1429.635	820.802	-267.631	1426.947	810.697	-195.368	1419.911	814.594	-347.283	1431.440	436.546	-159.973	1428.785	437.935	-388.039	1415.331	64.780	-126.113	1397.532	67.604	-422.811	1519.660	881.639	-270.902	1521.238	878.717	-153.266	1518.082	884.561	-388.539	1326.723	951.068	-232.867	1323.828	948.803	-288.165	1433.968	442.222	-100.295	1433.832	444.484	-447.467	1431.226	436.160	-218.455	1435.897	442.295	-323.326	1395.886	68.992	-89.124	1383.063	72.498	-461.935	1430.295	67.614	-156.238	1401.614	76.728	-394.021	1376.027	33.575	-157.532	1346.739	47.372	-411.870	1516.888	1321.245	-267.449	1559.323	1253.433	-272.013	1396.426	1381.421	-258.286	1523.215	1325.909	-215.143	1517.303	1323.355	-321.366	1508.470	40.677	-67.493	1500.968	43.712	-457.424	1589.889	576.273	-184.572	1465.670	581.485	-519.579	1523.571	630.578	-134.886	1405.947	627.745	-455.949	1509.913	543.851	-127.737	1413.953	539.258	-450.848	1382.659	151.632	-28.928	1494.473	186.876	-406.634	1390.873	157.208	-72.459	1453.517	187.454	-414.806
	53	0.44167	1429.485	820.781	-267.788	1426.760	810.709	-195.235	1419.611	814.469	-347.148	1431.375	436.609	-159.962	1428.719	437.953	-388.028	1415.332	64.767	-126.119	1397.478	67.631	-422.871	1519.437	881.554	-270.904	1521.103	878.740	-153.279	1517.772	884.368	-388.529	1326.571	951.015	-232.969	1323.673	948.794	-288.158	1433.907	442.267	-100.283	1433.776	444.528	-447.452	1431.589	435.974	-218.262	1435.924	442.234	-323.473	1395.891	68.973	-89.127	1383.018	72.532	-461.998	1430.223	67.630	-156.276	1401.863	76.557	-394.151	1376.052	33.586	-157.572	1346.619	47.448	-411.874	1516.793	1321.259	-267.471	1559.199	1253.418	-271.882	1396.468	1381.452	-258.515	1523.125	1326.040	-215.205	1517.205	1323.245	-321.363	1508.462	40.681	-67.499	1500.960	43.723	-457.425	1589.878	576.275	-184.561	1465.659	581.575	-519.576	1523.514	630.675	-134.923	1405.842	627.769	-455.962	1510.072	543.951	-127.688	1413.951	539.269	-450.928	1382.669	151.630	-28.934	1494.403	187.124	-406.741	1390.826	157.222	-72.462	1453.510	187.434	-414.780
	54	0.45000	1429.203	820.667	-268.073	1426.567	810.712	-195.062	1419.290	814.325	-346.973	1431.335	436.673	-159.958	1428.649	437.895	-388.046	1415.311	64.774	-126.113	1397.480	67.669	-422.906	1519.212	881.440	-270.880	1520.975	878.743	-153.288	1517.449	884.138	-388.471	1326.452	950.967	-233.063	1323.483	948.795	-288.156	1433.854	442.306	-100.276	1433.716	444.505	-447.465	1431.775	435.742	-217.740	1435.382	442.120	-323.682	1395.863	68.978	-89.125	1383.026	72.571	-462.035	1430.105	67.688	-156.324	1402.959	75.973	-394.379	1376.081	33.591	-157.625	1346.686	47.408	-411.899	1516.602	1321.281	-267.410	1558.963	1253.409	-271.773	1396.374	1381.527	-258.649	1522.916	1326.081	-215.103	1517.037	1323.243	-321.343	1508.443	40.682	-67.501	1500.944	43.748	-457.429	1589.848	576.241	-184.527	1465.636	581.647	-519.584	1523.409	630.771	-135.009	1405.790	627.781	-455.968	1510.132	544.179	-127.525	1413.735	539.447	-451.048	1382.691	151.615	-28.953	1494.316	187.437	-406.877	1390.769	157.187	-72.399	1453.336	187.742	-414.195
	55	0.45833	1428.930	820.564	-268.448	1426.372	810.720	-194.867	1418.982	814.193	-346.776	1431.306	436.729	-159.941	1428.592	437.794	-388.083	1415.259	64.794	-126.105	1397.535	67.704	-422.912	1518.993	881.333	-270.822	1520.843	878.747	-153.287	1517.143	883.919	-388.356	1326.379	950.930	-233.131	1323.277	948.799	-288.157	1433.815	442.336	-100.256	1433.662	444.444	-447.498	1431.726	435.731	-217.560	1435.300	442.056	-323.812	1395.804	68.997	-89.121	1383.080	72.599	-462.041	1430.168	67.687	-156.270	1404.587	75.257	-394.653	1376.103	33.590	-157.667	1346.890	47.267	-411.935	1516.363	1321.229	-267.339	1558.680	1253.322	-271.598	1396.213	1381.562	-258.580	1522.601	1326.054	-214.882	1516.882	1323.160	-321.415	1508.424	40.683	-67.496	1500.929	43.782	-457.437	1589.781	576.154	-184.507	1465.612	581.693	-519.589	1523.373	630.759	-135.032	1405.766	627.744	-455.969	1510.122	544.330	-127.476	1413.691	539.545	-451.118	1382.738	151.584	-28.972	1494.224	187.763	-407.014	1390.887	157.086	-72.279	1453.009	188.438	-413.180
	56	0.46667	1428.828	820.608	-268.884	1426.194	810.740	-194.678	1418.730	814.097	-346.585	1431.275	436.774	-159.911	1428.557	437.682	-388.131	1415.187	64.822	-126.102	1397.631	67.727	-422.908	1518.804	881.259	-270.733	1520.710	878.765	-153.269	1516.897	883.753	-388.198	1326.339	950.912	-233.171	1323.061	948.814	-288.165	1433.786	442.357	-100.224	1433.618	444.372	-447.541	1431.887	435.735	-217.731	1435.490	442.104	-323.742	1395.733	69.025	-89.117	1383.168	72.614	-462.035	1430.159	67.679	-156.244	1405.388	74.980	-394.791	1376.104	33.584	-157.680	1347.196	47.026	-412.001	1516.170	1321.230	-267.339	1558.506	1253.330	-271.500	1396.147	1381.487	-258.530	1522.355	1326.099	-214.805	1516.742	1323.117	-321.488	1508.409	40.683	-67.486	1500.915	43.821	-457.447	1589.687	576.014	-184.530	1465.581	581.733	-519.598	1523.355	630.745	-135.089	1405.776	627.697	-455.958	1510.203	544.402	-127.595	1413.740	539.551	-451.076	1382.800	151.546	-28.983	1494.148	188.054	-407.122	1390.988	157.017	-72.193	1452.814	188.808	-412.767
	57	0.47500	1428.759	820.692	-269.304	1426.032	810.771	-194.516	1418.542	814.038	-346.424	1431.288	436.791	-159.927	1428.545	437.566	-388.188	1415.152	64.836	-126.091	1397.743	67.739	-422.909	1518.646	881.221	-270.630	1520.570	878.799	-153.229	1516.721	883.642	-388.031	1326.303	950.911	-233.188	1322.847	948.839	-288.169	1433.775	442.347	-100.236	1433.588	444.291	-447.597	1432.130	435.517	-217.667	1434.969	441.879	-323.960	1395.684	69.045	-89.114	1383.265	72.618	-462.031	1430.024	67.673	-156.288	1405.578	74.924	-394.838	1376.092	33.574	-157.674	1347.536	46.741	-412.085	1516.097	1321.339	-267.412	1558.541	1253.503	-271.526	1395.908	1381.446	-258.695	1522.211	1326.215	-214.900	1516.733	1323.231	-321.532	1508.406	40.680	-67.473	1500.905	43.861	-457.455	1589.611	575.887	-184.563	1465.543	581.778	-519.617	1523.268	630.764	-135.249	1405.851	627.706	-455.944	1510.262	544.432	-127.656	1413.559	539.580	-451.178	1382.859	151.505	-28.990	1494.100	188.274	-407.184	1390.988	157.017	-72.193	1452.783	188.805	-412.809
	58	0.48333	1428.583	820.680	-269.632	1425.879	810.807	-194.389	1418.399	814.009	-346.298	1431.364	436.771	-160.012	1428.548	437.432	-388.259	1415.184	64.829	-126.070	1397.824	67.740	-422.914	1518.504	881.215	-270.527	1520.421	878.844	-153.174	1516.588	883.586	-387.881	1326.259	950.913	-233.199	1322.654	948.861	-288.163	1433.787	442.293	-100.315	1433.564	444.187	-447.666	1432.165	435.354	-217.472	1434.489	441.692	-324.148	1395.678	69.049	-89.115	1383.324	72.612	-462.030	1429.856	67.637	-156.368	1405.688	74.890	-394.857	1376.080	33.565	-157.654	1347.746	46.549	-412.139	1516.052	1321.423	-267.459	1558.582	1253.636	-271.479	1395.549	1381.500	-258.877	1522.072	1326.323	-214.960	1516.776	1323.297	-321.558	1508.417	40.670	-67.462	1500.896	43.897	-457.459	1589.574	575.829	-184.591	1465.513	581.824	-519.620	1523.234	630.760	-135.400	1405.894	627.725	-455.944	1510.258	544.475	-127.655	1413.396	539.590	-451.272	1382.914	151.452	-28.999	1494.075	188.388	-407.193	1390.942	157.051	-72.283	1452.782	188.813	-412.805
